<svg width="46" height="56" viewBox="0 0 46 56" fill="none" xmlns="http://www.w3.org/2000/svg">
    <g clip-path="url(#clip0_382_822)">
        <path d="M39.5498 16.8199H32.7179C35.2505 15.7121 37.6063 14.4294 38.6664 13.4382C41.9057 10.2315 42.0824 5.27575 39.1376 2.36054C37.6652 0.902947 35.6627 0.203302 33.5424 0.319911C31.4811 0.436519 29.5375 1.31107 28.0062 2.82697C26.4749 4.34286 24.5313 8.59906 23.0589 12.2139C21.5864 8.59906 19.6429 4.40117 18.1115 2.82697C14.8723 -0.379734 9.86607 -0.554646 6.92123 2.36054C3.97646 5.27575 4.21199 10.2315 7.39243 13.4382C8.45253 14.4877 10.8084 15.7121 13.341 16.8199H6.45009C3.32857 16.8199 0.796021 19.3269 0.796021 22.417V50.1113C0.796021 53.2014 3.32857 55.7084 6.45009 55.7084H39.5498C42.6714 55.7084 45.2039 53.2014 45.2039 50.1113V22.417C45.2039 19.3269 42.6714 16.8199 39.5498 16.8199ZM31.0099 5.91706C31.7756 5.15914 32.7768 4.69271 33.7192 4.63438C33.778 4.63438 33.8369 4.63438 33.9547 4.63438C34.7793 4.63438 35.486 4.92592 36.0161 5.45063C37.2529 6.67499 37.0762 8.89055 35.5449 10.4065C34.5437 11.3976 30.5976 13.1467 26.7105 14.6626C28.2418 10.8146 30.0087 6.90821 31.0099 5.91706ZM10.455 10.4065C8.92373 8.89055 8.74705 6.67499 9.98384 5.45063C10.5139 4.92592 11.2796 4.63438 12.0453 4.63438C13.0465 4.63438 14.1655 5.10081 14.9901 5.91706C15.9913 6.90821 17.7582 10.8146 19.2895 14.6626C15.4023 13.1467 11.4563 11.3976 10.455 10.4065ZM16.0502 26.4983C17.876 26.4983 19.4073 27.9559 19.4073 29.8216C19.4073 31.629 17.9349 33.1449 16.0502 33.1449C14.2244 33.1449 12.6931 31.6873 12.6931 29.8216C12.6931 28.0141 14.2244 26.4983 16.0502 26.4983ZM32.1878 40.4328C30.7743 44.2809 27.0638 46.8462 23 46.8462C18.8772 46.8462 15.1668 44.2809 13.8122 40.4912C13.4587 39.4417 13.9888 38.3339 14.9901 37.9258C16.0502 37.5177 17.1692 38.1007 17.5815 39.0919C18.4061 41.3657 20.5852 42.8233 23 42.8233C25.4148 42.8233 27.5939 41.3074 28.4184 39.0919C28.7718 38.0424 29.9497 37.5177 31.0099 37.8675C32.07 38.2756 32.6001 39.3834 32.1878 40.4328ZM29.9497 33.0866C28.124 33.0866 26.5926 31.629 26.5926 29.7633C26.5926 27.9559 28.0651 26.44 29.9497 26.44C31.7756 26.44 33.3069 27.8975 33.3069 29.7633C33.3069 31.629 31.7756 33.0866 29.9497 33.0866Z"
              fill="white"/>
    </g>
    <defs>
        <clipPath id="clip0_382_822">
            <rect width="45" height="56" fill="white" transform="translate(0.5)"/>
        </clipPath>
    </defs>
</svg>
